<svg style="enable-background:new 0 0 100 100" viewBox="0 0 100 100" xml:space="preserve" xmlns="http://www.w3.org/2000/svg"><path d="M41.762 27.26v8.294c0 .571.305 1.1.8 1.385l20.212 11.669a1.6 1.6 0 0 1 0 2.771L42.562 63.048a1.6 1.6 0 0 0-.8 1.385v8.294a1.6 1.6 0 0 0 2.399 1.385l39.375-22.733a1.6 1.6 0 0 0 0-2.771L44.161 25.875a1.6 1.6 0 0 0-2.399 1.385z"/><path d="M83.537 48.608 44.161 25.875a1.56 1.56 0 0 0-.597-.19l37.972 21.923a1.6 1.6 0 0 1 0 2.771L42.161 73.112c-.1.058-.205.092-.308.126.308.914 1.401 1.398 2.308.874l39.375-22.733a1.6 1.6 0 0 0 .001-2.771z"/><path d="M41.762 27.26v8.294c0 .571.305 1.1.8 1.385l20.212 11.669a1.6 1.6 0 0 1 0 2.771L42.562 63.048a1.6 1.6 0 0 0-.8 1.385v8.294a1.6 1.6 0 0 0 2.399 1.385l39.375-22.733a1.6 1.6 0 0 0 0-2.771L44.161 25.875a1.6 1.6 0 0 0-2.399 1.385z" style="fill:#ff6b08;stroke:#ff6b08;stroke-miterlimit:10"/><path d="M14.664 27.273v8.294c0 .571.305 1.1.8 1.385l20.212 11.669a1.6 1.6 0 0 1 0 2.771L15.464 63.061a1.6 1.6 0 0 0-.8 1.385v8.294a1.6 1.6 0 0 0 2.399 1.385l39.375-22.733a1.6 1.6 0 0 0 0-2.771L17.063 25.888a1.6 1.6 0 0 0-2.399 1.385z"/><path d="M56.438 48.621 17.063 25.888a1.56 1.56 0 0 0-.597-.19l37.972 21.923a1.6 1.6 0 0 1 0 2.771L15.063 73.125c-.1.058-.205.092-.308.126.308.914 1.401 1.398 2.308.874l39.375-22.733a1.6 1.6 0 0 0 0-2.771z"/><path d="M14.664 27.273v8.294c0 .571.305 1.1.8 1.385l20.212 11.669a1.6 1.6 0 0 1 0 2.771L15.464 63.061a1.6 1.6 0 0 0-.8 1.385v8.294a1.6 1.6 0 0 0 2.399 1.385l39.375-22.733a1.6 1.6 0 0 0 0-2.771L17.063 25.888a1.6 1.6 0 0 0-2.399 1.385z" style="fill:#ff6b08;stroke:#ff6b08;stroke-miterlimit:10"/></svg>