<?xml version="1.0" encoding="UTF-8"?>
<!DOCTYPE svg PUBLIC "-//W3C//DTD SVG 1.1//EN" "http://www.w3.org/Graphics/SVG/1.1/DTD/svg11.dtd">
<!-- Creator: CorelDRAW 2020 (64-Bit) -->
<svg xmlns="http://www.w3.org/2000/svg" xml:space="preserve" width="193.818mm" height="149.738mm" version="1.1" style="shape-rendering:geometricPrecision; text-rendering:geometricPrecision; image-rendering:optimizeQuality; fill-rule:evenodd; clip-rule:evenodd"
viewBox="0 0 2797.78 2161.49"
 xmlns:xlink="http://www.w3.org/1999/xlink"
 xmlns:xodm="http://www.corel.com/coreldraw/odm/2003">
 <defs>
  <style type="text/css">
   <![CDATA[
    .fil3 {fill:none}
    .fil2 {fill:#2B2A29}
    .fil0 {fill:#2B2A29}
    .fil1 {fill:#EF7F1A}
    .fil4 {fill:#7688A1}
    .fil7 {fill:black}
    .fil8 {fill:#515151}
    .fil5 {fill:#FF6B01}
    .fil6 {fill:white}
    .fil10 {fill:#C7C7C7}
    .fil9 {fill:#989898}
   ]]>
  </style>
 </defs>
 <g id="Слой_x0020_1">
  <metadata id="CorelCorpID_0Corel-Layer"/>
  <path class="fil0" d="M798.42 215.14l1177.91 -3.13 0.39 1525.65c-25.21,8.51 -1141.29,10.98 -1178.32,0.68l0.01 -1523.21zm1640.4 630.96c53.24,-11.64 102.81,26.64 111.94,68.65 12.27,56.46 -23.51,103.78 -67.63,113.71 -127.4,28.67 -154.66,-158.23 -44.31,-182.36zm-2167.46 0c53.26,-11.7 102.74,26.78 111.89,68.71 12.28,56.3 -23.69,103.73 -67.59,113.64 -127.19,28.7 -154.24,-158.2 -44.3,-182.35zm624.61 -736.4c0.29,-46.39 53.56,-55 55.94,0 1.12,14.17 -3.13,24.83 -37.23,23.96 -14.22,-3.95 -15.99,-5 -18.71,-23.96zm-45.97 16.66c-56.24,23.64 -77.3,-51.81 -18.64,-55.57 35.75,7.47 29.83,31.82 18.64,55.57zm146.48 -57.64c30.72,-16.62 63.08,52.55 20.9,60.8 -43.35,11.93 -45.14,-38.61 -20.9,-60.8zm-268.39 453.11c0.99,-60.22 -0.37,-226.21 1.08,-297.64 0,-158.18 -23.07,-223.3 70.36,-224.18l1176.64 0.02c60.14,0.63 69.84,19.39 70.68,78.72 1.06,74.71 -5.48,420.44 2.31,443.08l441.05 0.11 -27.43 160.43 128.77 1.87c-17.41,47.47 -57.63,98.11 -61.87,147.73 146.28,132.5 -23.24,226.71 -24.06,228.08 -10.78,53.5 38.75,439.12 45.89,530.24l-502.34 0c-9.73,72.76 20.15,180.1 -30.24,231.22l-1262.25 -2.99c-35.6,-34.33 -27.93,-50.32 -27.61,-106.09 -2.78,-39.59 0.61,-87.25 0.84,-120.56l-474.82 -1.61 34.49 -518.95c-59.89,-28.43 -113.23,-32.09 -123.66,-115.36 -10.06,-80.3 35.61,-114.14 93.16,-144.89l-52.24 -128.07 129.55 -0.6 -36.56 -160.58 428.25 0z"/>
  <path class="fil1" d="M1298.45 729.87c-10.22,27.82 -10.73,22.82 1.75,48.28 57.82,10.7 93.36,5.7 156.34,5.49 27.8,0 50.21,-0.34 47.49,-32.49 -2.73,-32.25 -22.42,-27.47 -54.47,-27.69 -47.3,-0.32 -111.09,-5.97 -151.12,6.4z"/>
  <path class="fil2" d="M2333.25 1718.42c38.83,-34.89 89.89,1.56 57.99,57.86 -20.84,5.42 -37.5,9.75 -57.22,-2.63 -21.84,-22.08 -15.58,-42.65 -0.77,-55.23zm11.71 -29.5c-89.34,38.46 -24.58,143.83 44.61,109.67 60.14,-29.69 27.83,-140.85 -44.61,-109.67z"/>
  <path class="fil2" d="M117.06 1730.2c-39.14,-31.82 23.28,-92.64 60.43,-60.73 33,63.48 -42.9,76.03 -60.43,60.73zm6.81 -86.97c-83.96,42.5 -20.09,136.41 44.79,109.66 72.31,-29.81 23.8,-144.38 -44.79,-109.66z"/>
  <path class="fil2" d="M448.45 1764.37l-1.34 19.29c0.21,0.62 14.68,19.63 15.14,20.23 -15.97,20.93 -20.37,10.7 -18.12,43.26 32.94,4.55 15.81,1.26 43.16,-14.73 27.73,15.44 10.25,18.85 43.26,14.92 2.19,-28.93 -4.51,-26.94 -17.83,-42.87l16.08 -25.43c1.96,-13.15 0.72,-7.79 -2.47,-14.87 -23.82,-7.48 -20.8,1.19 -39.04,14.97 -17.45,-14.37 -15.23,-22.75 -38.84,-14.78z"/>
  <path class="fil1" d="M1560.96 554.92c-21.79,8.32 -12.77,-4.68 -19.9,21.84 -1.97,7.32 -1.08,26.97 1.61,33.91 7.2,18.55 33.49,25.89 57.2,16.85 32.02,-12.21 30.11,-98.95 -38.9,-72.6z"/>
  <path class="fil1" d="M1193.65 554.34c-21.24,7.32 -13.34,-3.39 -19.88,21.64 -9.8,37.53 16.94,68.88 58.94,50.76 31.16,-13.44 28.48,-95.68 -39.06,-72.4z"/>
  <path class="fil1" d="M2521.31 425.92c30.4,-3.5 24.31,-17.74 29.05,-54.94 2.99,-23.45 17.8,-71.33 -5.42,-81.4 -24.74,-10.72 -25.57,34.89 -28.18,56.23 -4.43,36.17 -15.19,57.16 4.56,80.11z"/>
  <path class="fil1" d="M284.57 410.69c4.92,-17.75 1.29,-161.93 -35.55,-127.66 -15.79,14.69 -4.73,47.59 -0.55,81.46 5.08,41.11 1.06,57.38 36.1,46.2z"/>
  <path class="fil1" d="M2797.78 589.7c-2.71,-34.24 -10.15,-28.34 -47.49,-32.35 -29.99,-3.22 -55.73,-8.59 -84.37,-1.46 -6.16,37.28 14.34,31.9 49.25,35.26 33.21,3.19 57.06,11.13 82.61,-1.45z"/>
  <path class="fil1" d="M2714.9 362.27c-37.78,-3.18 -42.46,17.81 -63.72,41.63 -8.34,9.34 -49.48,41.32 -34.03,57.22 22.12,22.75 46.27,-17.35 59.29,-31.97 19.78,-22.22 40.12,-31.06 38.46,-66.88z"/>
  <path class="fil1" d="M-0 567.62c13.73,31.64 29.39,19.7 67.99,15.62 37.64,-3.98 62.13,4.52 67.69,-30.88 -21.83,-15.99 -117.52,-12.28 -135.69,15.27z"/>
  <path class="fil1" d="M91.47 353.11c-3.96,3.4 -18.12,7.52 2.16,34.63 70.03,93.63 131.92,92.23 55.38,6.81 -11.35,-12.67 -40.77,-55.82 -57.54,-41.44z"/>
  <path class="fil2" d="M298.7 1985.71c-25.12,-1.02 -4.42,2.4 -12.67,-13.82 10.46,-6.73 -13.92,-16.42 18.02,-6.05 7.67,2.49 13.16,-13.43 6.22,12.26 -3.88,14.34 5.47,8.3 -11.57,7.61zm-27.93 19.43l57.78 2.43c7.67,-26.14 7.77,-38.12 0.71,-61.21 -48.67,-16.8 -75.26,10.43 -58.49,58.78z"/>
  <path class="fil2" d="M2377.69 1986.17c2.64,-1.02 3.82,1.61 8.34,17.43 21.89,-1.42 14.17,-11.36 11.98,-31.85 16.05,-20.17 22.19,-10.54 17.62,-27.86 -12.78,-11.14 -19.63,6.13 -34.29,12.94 -5.86,2.72 -13,-36 -24.24,-25.29 -23.76,13.7 7.83,24.11 8.83,37.66 0.31,4.27 -8.14,8.99 -19.72,18.07 -6.43,5.05 -2.13,14.8 5.77,14.17 13.08,-1.05 -0.43,-5.18 25.69,-15.27z"/>
  <g id="_3197583184272">
   <line class="fil3" x1="1378.05" y1="0" x2="1378.05" y2= "0" />
  </g>
  <path class="fil2" d="M2630.62 1709.12l-1.34 19.29c0.21,0.62 14.68,19.63 15.14,20.23 -15.97,20.93 -20.37,10.7 -18.12,43.26 32.94,4.55 15.81,1.26 43.16,-14.73 27.73,15.44 10.25,18.85 43.26,14.92 2.19,-28.93 -4.51,-26.94 -17.83,-42.87l16.08 -25.43c1.96,-13.15 0.72,-7.79 -2.47,-14.87 -23.82,-7.48 -20.8,1.19 -39.04,14.97 -17.45,-14.37 -15.23,-22.75 -38.84,-14.78z"/>
  <path class="fil4" d="M798.41 1738.35l0.01 -1523.21 1177.91 -3.13 0.39 1525.65c-25.21,8.51 -1141.29,10.98 -1178.32,0.68zm1250.76 -148.06l502.34 0c-7.14,-91.13 -56.67,-476.74 -45.89,-530.24 0.82,-1.37 170.34,-95.58 24.06,-228.08 4.24,-49.63 44.47,-100.26 61.87,-147.73l-128.77 -1.87 27.43 -160.43 -441.05 -0.11c-7.8,-22.64 -1.25,-368.37 -2.31,-443.08 -0.84,-59.33 -10.54,-78.1 -70.68,-78.72l-1176.64 -0.02c-93.43,0.88 -70.36,66 -70.36,224.18 -1.45,71.43 -0.1,237.42 -1.08,297.64l-428.25 0 36.56 160.58 -129.55 0.6 52.24 128.07c-57.56,30.75 -103.22,64.59 -93.16,144.89 10.43,83.26 63.77,86.93 123.66,115.36l-34.49 518.95 474.82 1.61c-0.23,33.31 -3.63,80.97 -0.84,120.56 -0.32,55.77 -7.99,71.76 27.61,106.09l1262.25 2.99c50.38,-51.12 20.51,-158.46 30.24,-231.22zm433.97 -561.83c-127.4,28.67 -154.66,-158.23 -44.31,-182.36 53.24,-11.64 102.81,26.64 111.94,68.65 12.27,56.46 -23.51,103.78 -67.63,113.71zm-2211.78 -182.36c53.26,-11.7 102.74,26.78 111.89,68.71 12.28,56.3 -23.69,103.73 -67.59,113.64 -127.19,28.7 -154.24,-158.2 -44.3,-182.35zm643.32 -712.44c-14.22,-3.95 -15.99,-5 -18.71,-23.96 0.29,-46.39 53.56,-55 55.94,0 1.12,14.17 -3.13,24.83 -37.23,23.96zm-64.68 -7.3c-56.24,23.64 -77.3,-51.81 -18.64,-55.57 35.75,7.47 29.83,31.82 18.64,55.57zm167.39 3.15c-43.35,11.93 -45.14,-38.61 -20.9,-60.8 30.72,-16.62 63.08,52.55 20.9,60.8z"/>
  <path class="fil4" d="M798.41 1738.35l0.01 -1523.21 1177.91 -3.13 0.39 1525.65c-25.21,8.51 -1141.29,10.98 -1178.32,0.68zm1250.76 -148.06l502.34 0c-7.14,-91.13 -56.67,-476.74 -45.89,-530.24 0.82,-1.37 170.34,-95.58 24.06,-228.08 4.24,-49.63 44.47,-100.26 61.87,-147.73l-128.77 -1.87 27.43 -160.43 -441.05 -0.11c-7.8,-22.64 -1.25,-368.37 -2.31,-443.08 -0.84,-59.33 -10.54,-78.1 -70.68,-78.72l-1176.64 -0.02c-93.43,0.88 -70.36,66 -70.36,224.18 -1.45,71.43 -0.1,237.42 -1.08,297.64l-428.25 0 36.56 160.58 -129.55 0.6 52.24 128.07c-57.56,30.75 -103.22,64.59 -93.16,144.89 10.43,83.26 63.77,86.93 123.66,115.36l-34.49 518.95 474.82 1.61c-0.23,33.31 -3.63,80.97 -0.84,120.56 -0.32,55.77 -7.99,71.76 27.61,106.09l1262.25 2.99c50.38,-51.12 20.51,-158.46 30.24,-231.22zm433.97 -561.83c-127.4,28.67 -154.66,-158.23 -44.31,-182.36 53.24,-11.64 102.81,26.64 111.94,68.65 12.27,56.46 -23.51,103.78 -67.63,113.71zm-2211.78 -182.36c53.26,-11.7 102.74,26.78 111.89,68.71 12.28,56.3 -23.69,103.73 -67.59,113.64 -127.19,28.7 -154.24,-158.2 -44.3,-182.35zm643.32 -712.44c-14.22,-3.95 -15.99,-5 -18.71,-23.96 0.29,-46.39 53.56,-55 55.94,0 1.12,14.17 -3.13,24.83 -37.23,23.96zm-64.68 -7.3c-56.24,23.64 -77.3,-51.81 -18.64,-55.57 35.75,7.47 29.83,31.82 18.64,55.57zm167.39 3.15c-43.35,11.93 -45.14,-38.61 -20.9,-60.8 30.72,-16.62 63.08,52.55 20.9,60.8z"/>
  <path class="fil5" d="M798.42 215.14l1177.91 -3.13 0.39 1525.65c-25.21,8.51 -1141.29,10.98 -1178.32,0.68l0.01 -1523.21zm1250.75 1375.15l502.34 0c-7.14,-91.13 -56.67,-476.74 -45.89,-530.24 0.82,-1.37 170.34,-95.58 24.06,-228.08 4.24,-49.63 44.47,-100.26 61.87,-147.73l-128.77 -1.87 27.43 -160.43 -441.05 -0.11c-7.8,-22.64 -1.25,-368.37 -2.31,-443.08 -0.84,-59.33 -10.54,-78.1 -70.68,-78.72l-1176.64 -0.02c-93.43,0.88 -70.36,66 -70.36,224.18 -1.45,71.43 -0.1,237.42 -1.08,297.64l-428.25 0 36.56 160.58 -129.55 0.6 52.24 128.07c-57.56,30.75 -103.22,64.59 -93.16,144.89 10.43,83.26 63.77,86.93 123.66,115.36l-34.49 518.95 474.82 1.61c-0.23,33.31 -3.63,80.97 -0.84,120.56 -0.32,55.77 -7.99,71.76 27.61,106.09l1262.25 2.99c50.38,-51.12 20.51,-158.46 30.24,-231.22zm433.97 -561.83c-127.4,28.67 -154.66,-158.23 -44.31,-182.36 53.24,-11.64 102.81,26.64 111.94,68.65 12.27,56.46 -23.51,103.78 -67.63,113.71zm-2211.78 -182.36c53.26,-11.7 102.74,26.78 111.89,68.71 12.28,56.3 -23.69,103.73 -67.59,113.64 -127.19,28.7 -154.24,-158.2 -44.3,-182.35zm725.13 -777.38c30.72,-16.62 63.08,52.55 20.9,60.8 -43.35,11.93 -45.14,-38.61 -20.9,-60.8zm-44.57 40.98c1.12,14.17 -3.13,24.83 -37.23,23.96 -14.22,-3.95 -15.99,-5 -18.71,-23.96 0.29,-46.39 53.56,-55 55.94,0zm-120.55 -38.91c35.75,7.47 29.83,31.82 18.64,55.57 -56.24,23.64 -77.3,-51.81 -18.64,-55.57z"/>
  <path class="fil6" d="M798.42 215.14l1177.91 -3.13 0.39 1525.65c-25.21,8.51 -1141.29,10.98 -1178.32,0.68l0.01 -1523.21zm1250.75 1375.15l502.34 0c-7.14,-91.13 -56.67,-476.74 -45.89,-530.24 0.82,-1.37 170.34,-95.58 24.06,-228.08 4.24,-49.63 44.47,-100.26 61.87,-147.73l-128.77 -1.87 27.43 -160.43 -441.05 -0.11c-7.8,-22.64 -1.25,-368.37 -2.31,-443.08 -0.84,-59.33 -10.54,-78.1 -70.68,-78.72l-1176.64 -0.02c-93.43,0.88 -70.36,66 -70.36,224.18 -1.45,71.43 -0.1,237.42 -1.08,297.64l-428.25 0 36.56 160.58 -129.55 0.6 52.24 128.07c-57.56,30.75 -103.22,64.59 -93.16,144.89 10.43,83.26 63.77,86.93 123.66,115.36l-34.49 518.95 474.82 1.61c-0.23,33.31 -3.63,80.97 -0.84,120.56 -0.32,55.77 -7.99,71.76 27.61,106.09l1262.25 2.99c50.38,-51.12 20.51,-158.46 30.24,-231.22zm433.97 -561.83c-127.4,28.67 -154.66,-158.23 -44.31,-182.36 53.24,-11.64 102.81,26.64 111.94,68.65 12.27,56.46 -23.51,103.78 -67.63,113.71zm-2211.78 -182.36c53.26,-11.7 102.74,26.78 111.89,68.71 12.28,56.3 -23.69,103.73 -67.59,113.64 -127.19,28.7 -154.24,-158.2 -44.3,-182.35zm725.13 -777.38c30.72,-16.62 63.08,52.55 20.9,60.8 -43.35,11.93 -45.14,-38.61 -20.9,-60.8zm-44.57 40.98c1.12,14.17 -3.13,24.83 -37.23,23.96 -14.22,-3.95 -15.99,-5 -18.71,-23.96 0.29,-46.39 53.56,-55 55.94,0zm-120.55 -38.91c35.75,7.47 29.83,31.82 18.64,55.57 -56.24,23.64 -77.3,-51.81 -18.64,-55.57z"/>
  <rect class="fil2" x="728.09" y="521.82" width="70.31" height="1074.08"/>
  <rect class="fil3" x="1976.69" y="521.82" width="72.48" height="1064.22"/>
  <polygon class="fil5" points="2049.17,521.82 1976.69,521.82 1976.69,1586.04 2049.17,1586.04 "/>
  <polygon class="fil7" points="2049.6,521.82 1976.69,521.82 1976.69,1592.4 2049.6,1592.4 "/>
  <path class="fil5" d="M728.09 1591.88l0 -1070.05 -428.25 0 36.56 160.58 -129.55 0.6 52.24 128.07c-57.56,30.75 -103.22,64.59 -93.16,144.89 10.43,83.26 63.77,86.93 123.66,115.36l-34.49 518.95 472.99 1.61zm-456.74 -745.78c53.26,-11.7 102.74,26.78 111.89,68.71 12.28,56.3 -23.69,103.73 -67.59,113.64 -127.19,28.7 -154.24,-158.2 -44.3,-182.35z"/>
  <path class="fil5" d="M2049.6 521.82l0 1068.47 501.91 0c-7.14,-91.13 -56.67,-476.74 -45.89,-530.24 0.82,-1.37 170.34,-95.58 24.06,-228.08 4.24,-49.63 44.47,-100.26 61.87,-147.73l-128.77 -1.87 27.43 -160.43 -440.62 -0.11zm433.54 506.64c-127.4,28.67 -154.66,-158.23 -44.31,-182.36 53.24,-11.64 102.81,26.64 111.94,68.65 12.27,56.46 -23.51,103.78 -67.63,113.71z"/>
  <path class="fil2" d="M1976.73 1737.67c-25.21,8.51 -1141.29,10.98 -1178.32,0.68l0 -142.45 -68.54 0c-0.45,33.05 -3.47,78.52 -0.8,116.54 -0.32,55.77 -7.99,71.76 27.61,106.09l1262.25 2.99c49.9,-50.63 21.08,-156.4 29.97,-229.11l-72.21 0 0.04 145.27z"/>
  <path class="fil2" d="M1976.69 1586.04l0 6.36 72.21 0 0.7 0 0 -2.11 0 -1068.47 -0.43 0 -72.48 0 0 1064.22zm-1178.27 -1370.9l1177.91 -3.13 0.35 1374.02 0 -1064.22 72.48 0c-7.8,-22.64 -1.25,-368.37 -2.31,-443.08 -0.84,-59.33 -10.54,-78.1 -70.68,-78.72l-1176.64 -0.02c-93.43,0.88 -70.36,66 -70.36,224.18 -1.45,71.43 -0.1,237.42 -1.08,297.64l70.32 0 0 -306.68zm198.07 -146.43c30.72,-16.62 63.08,52.55 20.9,60.8 -43.35,11.93 -45.14,-38.61 -20.9,-60.8zm-44.57 40.98c1.12,14.17 -3.13,24.83 -37.23,23.96 -14.22,-3.95 -15.99,-5 -18.71,-23.96 0.29,-46.39 53.56,-55 55.94,0zm-120.55 -38.91c35.75,7.47 29.83,31.82 18.64,55.57 -56.24,23.64 -77.3,-51.81 -18.64,-55.57z"/>
  <ellipse class="fil3" cx="1364.97" cy="2080.01" rx="690.02" ry="81.48"/>
  <path class="fil8" d="M2054.99 2080.01c0,-45 -308.93,-81.48 -690.02,-81.48 -381.09,0 -690.02,36.48 -690.02,81.48 0,45 308.93,81.48 690.02,81.48 381.09,0 690.02,-36.48 690.02,-81.48z"/>
  <path class="fil9" d="M2098.29 2080.01c0,-45 -318.62,-81.48 -711.66,-81.48 -393.04,0 -711.67,36.48 -711.67,81.48 0,45 318.62,81.48 711.67,81.48 393.04,0 711.66,-36.48 711.66,-81.48z"/>
  <path class="fil10" d="M798.41 1738.35c37.03,10.29 1153.1,7.83 1178.32,-0.68l-0.04 -145.27 0 -6.36 -0.35 -1374.02 -1177.91 3.13 -0 306.68 -0.01 1074.08 -0 142.45zm434.31 -1111.62c-42,18.12 -68.74,-13.23 -58.94,-50.76 6.54,-25.03 -1.36,-14.32 19.88,-21.64 67.54,-23.28 70.22,58.96 39.06,72.4zm223.83 156.91c-62.98,0.21 -98.52,5.21 -156.34,-5.49 -12.48,-25.46 -11.97,-20.47 -1.75,-48.28 40.02,-12.37 103.82,-6.72 151.12,-6.4 32.05,0.22 51.73,-4.56 54.47,27.69 2.72,32.15 -19.69,32.49 -47.49,32.49zm84.51 -206.88c7.14,-26.52 -1.89,-13.52 19.9,-21.84 69.01,-26.35 70.92,60.39 38.9,72.6 -23.7,9.04 -50,1.7 -57.2,-16.85 -2.69,-6.94 -3.58,-26.6 -1.61,-33.91z"/>
 </g>
</svg>
