<?xml version="1.0" ?><svg id="blue_copy" style="enable-background:new 0 0 100 100;" version="1.1" viewBox="0 0 100 100" xml:space="preserve" xmlns="http://www.w3.org/2000/svg" xmlns:xlink="http://www.w3.org/1999/xlink"><g id="Layer_8_copy_4_3_"><path d="M28.213,27.267v8.294c0,0.571,0.305,1.1,0.8,1.385l20.212,11.669c1.066,0.616,1.066,2.155,0,2.771L29.013,63.055   c-0.495,0.286-0.8,0.814-0.8,1.385v8.294c0,1.231,1.333,2.001,2.399,1.385l39.375-22.733c1.066-0.616,1.066-2.155,0-2.771   L30.612,25.881C29.546,25.266,28.213,26.035,28.213,27.267z"/><path d="M69.987,48.615L30.612,25.881c-0.193-0.112-0.395-0.164-0.597-0.19l37.972,21.923c1.066,0.616,1.066,2.155,0,2.771   L28.612,73.119c-0.1,0.058-0.205,0.092-0.308,0.126c0.308,0.914,1.401,1.398,2.308,0.874l39.375-22.733   C71.054,50.77,71.054,49.23,69.987,48.615z"/><path d="M28.213,27.267v8.294c0,0.571,0.305,1.1,0.8,1.385l20.212,11.669   c1.066,0.616,1.066,2.155,0,2.771L29.013,63.055c-0.495,0.286-0.8,0.814-0.8,1.385v8.294c0,1.231,1.333,2.001,2.399,1.385   l39.375-22.733c1.066-0.616,1.066-2.155,0-2.771L30.612,25.881C29.546,25.266,28.213,26.035,28.213,27.267z" style="fill:#FF6B08;stroke:#FF6B08;stroke-miterlimit:10;"/></g></svg>