<svg style="enable-background:new 0 0 100 100" viewBox="0 0 100 100" xml:space="preserve" xmlns="http://www.w3.org/2000/svg"><path d="M28.213 27.267v8.294c0 .571.305 1.1.8 1.385l20.212 11.669a1.6 1.6 0 0 1 0 2.771L29.013 63.055a1.6 1.6 0 0 0-.8 1.385v8.294a1.6 1.6 0 0 0 2.399 1.385l39.375-22.733a1.6 1.6 0 0 0 0-2.771L30.612 25.881a1.6 1.6 0 0 0-2.399 1.386z"/><path d="M69.987 48.615 30.612 25.881a1.56 1.56 0 0 0-.597-.19l37.972 21.923a1.6 1.6 0 0 1 0 2.771L28.612 73.119c-.1.058-.205.092-.308.126.308.914 1.401 1.398 2.308.874l39.375-22.733a1.6 1.6 0 0 0 0-2.771z"/><path d="M28.213 27.267v8.294c0 .571.305 1.1.8 1.385l20.212 11.669a1.6 1.6 0 0 1 0 2.771L29.013 63.055a1.6 1.6 0 0 0-.8 1.385v8.294a1.6 1.6 0 0 0 2.399 1.385l39.375-22.733a1.6 1.6 0 0 0 0-2.771L30.612 25.881a1.6 1.6 0 0 0-2.399 1.386z" style="fill:#ff6b08;stroke:#ff6b08;stroke-miterlimit:10"/></svg>