<svg style="enable-background:new 0 0 100 100" viewBox="0 0 100 100" xml:space="preserve" xmlns="http://www.w3.org/2000/svg"><path d="M70.787 27.267v8.294c0 .571-.305 1.1-.8 1.385L49.776 48.615a1.6 1.6 0 0 0 0 2.771l20.212 11.669c.495.286.8.814.8 1.385v8.294a1.6 1.6 0 0 1-2.399 1.385L29.013 51.385a1.6 1.6 0 0 1 0-2.771l39.375-22.733a1.6 1.6 0 0 1 2.399 1.386z"/><path d="m69.987 63.055-2.376-1.372c-.013.043-.023.09-.032.136l.409.236c.495.286.8.814.8 1.385v8.294c0 1.008-.894 1.693-1.803 1.575l1.404.81a1.6 1.6 0 0 0 2.399-1.385V64.44a1.6 1.6 0 0 0-.801-1.385zM49.776 48.615l20.212-11.669a1.6 1.6 0 0 0 .8-1.385v-8.294c0-1.115-1.092-1.84-2.091-1.512.054.16.091.328.091.512v8.294c0 .571-.305 1.1-.8 1.385L47.776 47.615c-.078.052-.745.516-.8 1.385-.057.911.609 1.467.673 1.518l1.916 1.328a.747.747 0 0 1 .019-.51.575.575 0 0 1 .037-.07c-.896-.673-.853-2.07.155-2.651z"/><path d="M70.787 27.267v8.294c0 .571-.305 1.1-.8 1.385L49.776 48.615a1.6 1.6 0 0 0 0 2.771l20.212 11.669c.495.286.8.814.8 1.385v8.294a1.6 1.6 0 0 1-2.399 1.385L29.013 51.385a1.6 1.6 0 0 1 0-2.771l39.375-22.733a1.6 1.6 0 0 1 2.399 1.386z" style="fill:#ff6b08;stroke:#ff6b08;stroke-miterlimit:10"/></svg>